<svg xmlns="http://www.w3.org/2000/svg" viewBox="0 0 400 400">
  <defs>
    <linearGradient id="bg6" x1="0%" y1="0%" x2="100%" y2="100%"><stop offset="0%" style="stop-color:#1e3a5f"/><stop offset="100%" style="stop-color:#2c5282"/></linearGradient>
  </defs>
  <rect width="400" height="400" fill="url(#bg6)"/>
  <!-- Main body -->
  <circle cx="200" cy="180" r="120" fill="#6b7280" stroke="#9ca3af" stroke-width="3"/>
  <circle cx="200" cy="180" r="100" fill="#4b5563"/>
  <!-- Fan blades -->
  <g fill="#9ca3af" opacity="0.7">
    <polygon points="200,80 190,130 210,130"/>
    <polygon points="200,280 190,230 210,230"/>
    <polygon points="80,180 130,170 130,190"/>
    <polygon points="320,180 270,170 270,190"/>
    <polygon points="115,115 155,150 140,160"/>
    <polygon points="285,245 245,210 260,200"/>
    <polygon points="285,115 245,150 260,160"/>
    <polygon points="115,245 155,210 140,200"/>
  </g>
  <!-- Pulley -->
  <circle cx="200" cy="310" r="40" fill="#374151" stroke="#6b7280" stroke-width="3"/>
  <circle cx="200" cy="310" r="25" fill="#4b5563"/>
  <circle cx="200" cy="310" r="10" fill="#f97316"/>
  <!-- Mounting bracket -->
  <rect x="30" y="160" width="40" height="40" rx="5" fill="#374151" stroke="#4b5563" stroke-width="2"/>
  <circle cx="50" cy="180" r="8" fill="#1f2937"/>
  <!-- Terminals -->
  <rect x="290" y="130" width="30" height="15" rx="3" fill="#f97316"/>
  <rect x="290" y="155" width="30" height="15" rx="3" fill="#22c55e"/>
  <rect x="290" y="180" width="30" height="15" rx="3" fill="#374151"/>
  <text x="200" y="385" text-anchor="middle" fill="white" font-family="Arial" font-size="14" font-weight="bold">ALTERNATOR 28V 80A</text>
</svg>
